PathFileType	4	(X/Y/Z)	69_2_11_p0_0-387_filt_butterworth.trc
DataRate	CameraRate	NumFrames	NumMarkers	Units	OrigDataRate	OrigDataStartFrame	OrigNumFrames
54.0	54.0	6	27	m	54.0	0	387
Frame#	Time	RHip			RKnee			RAnkle			RBigToe			RSmallToe			RHeel			LHip			LKnee			LAnkle			LBigToe			LSmallToe			LHeel			Neck			Head			Nose			RShoulder			RElbow			RWrist			RThumb			RIndex			RPinky			LShoulder			LElbow			LWrist			LThumb			LIndex			LPinky			
		X1	Y1	Z1	X2	Y2	Z2	X3	Y3	Z3	X4	Y4	Z4	X5	Y5	Z5	X6	Y6	Z6	X7	Y7	Z7	X8	Y8	Z8	X9	Y9	Z9	X10	Y10	Z10	X11	Y11	Z11	X12	Y12	Z12	X13	Y13	Z13	X14	Y14	Z14	X15	Y15	Z15	X16	Y16	Z16	X17	Y17	Z17	X18	Y18	Z18	X19	Y19	Z19	X20	Y20	Z20	X21	Y21	Z21	X22	Y22	Z22	X23	Y23	Z23	X24	Y24	Z24	X25	Y25	Z25	X26	Y26	Z26	X27	Y27	Z27	
0	0.0	0.26796437035491455	0.568407713436032	0.5167653643215737	0.2514309229921352	0.5541411546128608	0.9286473778160876	0.22721577541430665	0.5561772842557118	1.305153692759637	0.26378530820079926	0.4211183563882134	1.3268805585690417	0.3220386261358538	0.45755828185569103	1.3213367820510498	0.16820474712491965	0.6681283549734902	1.392241191137979	0.08753244476316538	0.51142611553518	0.5244779425836685	0.039037109318327955	0.5455760292526926	0.9435389625988182	0.029242026350772197	0.5760534052207448	1.3352620950015675	0.10315959123217591	0.3878081326813207	1.3128066327413368	0.037341855052717664	0.42630382932760014	1.3306114842420271	0.036240031283617045	0.6030716762302266	1.3747360205055046	0.20416889248468797	0.5362410525498752	-0.0216668058934348	0.23892940655632292	0.49362954166728934	-0.2559692537634097	0.2547771691422114	0.4616733138187958	-0.1370847519155785	0.3528368587229227	0.552548446524493	0.06736871015992597	0.37782624067547793	0.5405507427966174	0.31105004611288894	0.2993294579088863	0.41096616617384785	0.46461170335538016	0.2612947130186748	0.32265477716338387	0.50164562129126	0.2276111745832173	0.3584991026054693	0.549381924063899	0.21856059000039352	0.37330495367401034	0.5632332920039266	0.05722953785261713	0.49699306981470626	0.05321412395557255	0.05248560686695032	0.4225520921994449	0.2983636950358014	0.1552602501224003	0.33020073558860774	0.44953573324188334	0.2791142186918303	0.29751009669753975	0.46809150442675684	0.24578857166561704	0.3243059755737651	0.520599748352258	0.20955233317950267	0.3420628455341396	0.5634646828882324
1	0.0185185185185185	0.27029532711697546	0.5746996388685923	0.5196308394795168	0.25423893243854623	0.5551706228094512	0.9304298896539747	0.22723473505082945	0.5556402595359048	1.3048611744996519	0.2637727916840389	0.4215598306778108	1.3273067791090147	0.32233151789280096	0.45802157787295245	1.319841657380168	0.1701658937331281	0.6635723538601562	1.3914831481077898	0.08542467533213965	0.509978351222776	0.5243717210584892	0.046869398284826363	0.5375417161353754	0.9404559911012632	0.029785235229710365	0.5753400757716698	1.337774744517481	0.1067164395176328	0.3793722279475047	1.3083532088648484	0.03818387611292141	0.42623012917045217	1.3280761511294599	0.037047744360194465	0.6021287131424096	1.3774360031325104	0.20607288617206854	0.5384242912920822	-0.018833329485777855	0.24257066066285216	0.4906642868657386	-0.2560077652087674	0.2546589012309586	0.46287358883196933	-0.13470441879619635	0.3526196066699227	0.5572157917078053	0.06663027407129113	0.3805560039361705	0.5417838371739359	0.3125169102493334	0.2995746553477293	0.4049784338852819	0.4642070875884613	0.2509241123405326	0.3327446319957478	0.513000109644275	0.22699436548974064	0.3568257858074608	0.5498253726301029	0.21873249306317133	0.372703788490519	0.5632055036729828	0.06324417105033663	0.48994710959716226	0.04973370153471669	0.05068523054255599	0.41916296768949995	0.29527550591979823	0.15669165224862872	0.3366357171202245	0.4520660778464373	0.2729153552678806	0.3075133589640562	0.473800834744555	0.24319905098096378	0.3330820372430227	0.5276601101216685	0.20919318061418074	0.3457011399303954	0.5656870504728347
2	0.037037037037037	0.271506944652007	0.580521340271798	0.5215492712479228	0.2558347131330091	0.5554749599554374	0.9320513991102233	0.22722502081968188	0.5554217645026694	1.3047487115983722	0.26346586176525905	0.4219041014496671	1.3274277148749893	0.3223529573591287	0.4585047141777601	1.318046873000394	0.17157176465915291	0.6629900144854584	1.3916371590737306	0.0842683487600828	0.5091527014930247	0.52433816680035	0.05057500336107266	0.5323267128702431	0.937629754705977	0.03007958647261937	0.5749518446770256	1.3391296084902826	0.10845962225643244	0.3746771864135328	1.3058825794967834	0.038637807978512184	0.4261821299719656	1.3266704906093405	0.037487362575192876	0.6015481481592565	1.3789110156130293	0.20646140683991715	0.5391020063677604	-0.017258122643739996	0.24580039047966468	0.4871729556897885	-0.25606480806382803	0.25454694123046845	0.46367425802822027	-0.1322677791714188	0.3525696974096518	0.560264131158312	0.06671154564056087	0.38201482859881014	0.5423929204630656	0.31404365829121295	0.29981712740626093	0.40018588280097184	0.4641393047847195	0.24393657038783567	0.33891055062656117	0.5194141810361138	0.22569885344823654	0.35691875768860426	0.5515304688751665	0.2187728089572666	0.372432899261443	0.5632650976595424	0.06655839592580456	0.4860590792343981	0.047802152448677755	0.04969173162942969	0.4172909566175409	0.2935929602138579	0.15738833104799993	0.3420190566634735	0.4533251091130398	0.2672539164234422	0.3169741365497063	0.4781795985307747	0.24095144657813408	0.3388603765140979	0.5318024002236752	0.2094554828665141	0.3459954127465462	0.5661811822049656
3	0.0555555555555555	0.27167885483429355	0.5845004721635149	0.5217791957547435	0.2558727743927901	0.5550517983428502	0.933072487834792	0.2271039718674011	0.5566517326233466	1.305405625153599	0.26306843287722637	0.4222665748082303	1.3265506008170276	0.32207714972704593	0.45905613987210947	1.3164454984205318	0.17212450201876175	0.6658031566253128	1.392273241801345	0.0840445477545189	0.5089451789070041	0.5243743876618341	0.05062195225508205	0.5304499677172144	0.9358136651595725	0.030133252490526667	0.5748841493783505	1.3393672665367404	0.10820221916014706	0.37346167629481575	1.3053239611297884	0.03869866350715253	0.4261663612201039	1.3264046495773474	0.0375743586634996	0.6013855775133783	1.3791678860398315	0.20560989903981014	0.5383436911219739	-0.01697594262746192	0.24772396836347935	0.48446560754756907	-0.2561175462720996	0.25447311534029704	0.4639860724814325	-0.13055943027203842	0.3526106981056205	0.5626177743600298	0.06782419864962409	0.3821953393052721	0.5425582767240494	0.31519387535717047	0.29909867538902607	0.39990696485441063	0.4650003184658469	0.23847669623526843	0.3430440828356962	0.5215833295233383	0.222840467259312	0.3591930572688269	0.5533845898161607	0.21870661424381221	0.37246485759531917	0.5634418353203892	0.0671942455281059	0.4852954575989411	0.04740919352539463	0.04950176509665842	0.41690468950083087	0.2933013325944305	0.15743832162197446	0.34502304186754595	0.4534443844251392	0.26213576110452574	0.32652967972583585	0.48133047962847175	0.23841551409487008	0.34241285593664705	0.5329993098031695	0.21052120633603705	0.3444918984652619	0.5648344850894248
4	0.074074074074074	0.2715502038903654	0.5861073271428539	0.5201718535568726	0.25479481467175885	0.5542462407472355	0.9332676147001893	0.22678138651790064	0.5604434974539564	1.3073955629647482	0.2629707190728938	0.42259124813303905	1.3246651118599768	0.3217042906857276	0.45949819656156676	1.315885350246268	0.17199353416543484	0.6696414584177819	1.3929245416416882	0.08418347705191448	0.5089846337518725	0.5244004742545556	0.04974052974264616	0.530460737464787	0.9352478381202693	0.030098715149359596	0.5749316031291729	1.3392274136374134	0.10727288583159186	0.3735373795894544	1.305483645106728	0.0386268982495884	0.42615954058873134	1.3265533590872745	0.037540925884073276	0.6014680892175448	1.378930323184518	0.2046467626783729	0.5372938314858514	-0.01720611096377339	0.2485480517070825	0.4838739162243219	-0.25613525979845414	0.2544498882851365	0.4640046500112889	-0.12997891799739744	0.3526102224749709	0.5647818982410797	0.0696945558061555	0.3819131204534053	0.5427323547674325	0.31569495350897187	0.29641214955126405	0.40623636619674774	0.46748530473784333	0.23194906836570173	0.34841499006916704	0.523076899226745	0.2191162511780437	0.3623620713142678	0.5541402351119304	0.21865962335985945	0.3724493009823207	0.5638796318974133	0.06680455566901897	0.4857154351679498	0.04760778741483605	0.0496262279549141	0.417072483738001	0.29353053497776294	0.1573216047864911	0.34566851781841335	0.4532819848040973	0.25742237198829815	0.3350222494383519	0.48376687847673927	0.2355387537351016	0.3454477345089165	0.5331529372355175	0.2119816693036188	0.3439100057058285	0.5627537386424478
5	0.0925925925925925	0.27156688906893844	0.5853458698737365	0.5175867946866979	0.2534937263695706	0.5533675749602535	0.9326470174793797	0.2263505320591692	0.5656306201598978	1.3100928604291795	0.26315191032826957	0.4226768370370709	1.322957708507444	0.3213923632389376	0.45960074574657545	1.3164949707511795	0.17167730581023122	0.6725750439297844	1.3936103081459998	0.08432334000690743	0.5090317572838354	0.5243484048286792	0.04931518067492065	0.530859030254827	0.9354485636669679	0.030071888016214236	0.5749452818540824	1.3391731266509572	0.10677872741466427	0.3736806589748794	1.305613690202755	0.038598525078456306	0.42613787876200987	1.3266204219670599	0.03752996213557641	0.6016037938268595	1.3786613689859877	0.2034691006935542	0.5370126589459158	-0.01726568630709932	0.24918202572502823	0.4848240935959748	-0.2561185747981471	0.25445713290323896	0.4639366054317473	-0.13001125223242088	0.35256978966502156	0.5660558974450692	0.0716064184862443	0.38176790411354067	0.5429819547679388	0.315769111022674	0.29257571052063147	0.41561892356580477	0.4711753821910582	0.2258299568387109	0.35406894325153704	0.5250217481236709	0.21646024221185545	0.36442047925248533	0.5540708926737887	0.21850203239132068	0.37236600937303654	0.5648151046743258	0.06648858584354592	0.4860376722533421	0.047769309758686825	0.049735796554085256	0.4172046054701497	0.29370032289876336	0.15727701337198535	0.3453099113067226	0.4532016176363983	0.2537066021360917	0.3387975116097218	0.4852856231283309	0.23348672590677105	0.3476520443038008	0.5333614148138736	0.21314845950594444	0.344419847199723	0.5609813860920865
